<?xml version="1.0" encoding="utf-8"?>
<svg version="1.1" id="Layer_1" xmlns="http://www.w3.org/2000/svg" xmlns:xlink="http://www.w3.org/1999/xlink" x="0px" y="0px"
	 width="775px" height="150px" viewBox="0 0 775 150" style="enable-background:new 0 0 775 150;" xml:space="preserve">
	 <defs><style>.vlogo{fill:var(--logo-fill-colour,#0909b7);stroke-width:0px;}</style></defs>
<path class="vlogo" d="M517,69.6V32.2h26.6c17.6,0,23.8,4.6,23.8,18.6s-6.2,18.8-23.8,18.8H517z M238.2,145h57.6
	c34.4,0,53.6-15.4,53.6-42.6c0-25.8-14.6-40.4-41.8-42.2l-24-1.6c-11.6-0.8-16-4.6-16-13.6c0-8.6,6.4-12.4,21.2-12.4h50.6L344.2,5
	h-55c-34,0-52.6,14.8-52.6,41.6c0,24.6,14.2,38.8,41.4,40.8l22.8,1.6c11.8,0.8,17,4.6,17,14c0,10-6.6,14.4-21.2,14.4H243L238.2,145z
	 M397,145h30.8V32.6h39.6L472.2,5H357.4l-4.8,27.6H397V145z M486.2,145H517V96.8h19.6c6.6,0,10.8,2.4,14,7.8l24.8,40.4H611
	l-28.8-45.8c-3.4-5.4-7-9-11.6-11c18.8-5.4,28-18.6,28-40.2c0-29.2-17-43-52.6-43h-59.8V145z M628,145h30.8V32.6h2.4
	c1,0,2,0.4,2.6,1.4l70,111H770L689,16.4C684.2,8.8,678,5,669.6,5H628V145z M105.4,145H147V5h-30.8v112.4h-2.4c-1,0-2-0.4-2.6-1.4
	L41.2,5H5l81,128.6C90.8,141.2,97,145,105.4,145z M179.4,145h30.8V5h-30.8V145z"/>
</svg>
